<svg width="174" height="176" viewBox="0 0 174 176" fill="none" xmlns="http://www.w3.org/2000/svg">
<path d="M31.7308 99.2949L33.6613 96.3086L35.5917 99.2949L37.5221 96.3086L39.4525 99.2949L41.383 96.3086" stroke="#95DE64" stroke-width="1.3649" stroke-linecap="square"/>
<path d="M155.278 50.7674L157.208 47.7811L159.139 50.7674L161.069 47.7811L162.999 50.7674L164.93 47.7811" stroke="#69C0FF" stroke-width="1.3649" stroke-linecap="square"/>
<rect width="4.67151" height="5.07714" transform="matrix(0.852409 0.522876 -0.41466 0.909976 158.523 24.4654)" fill="#FFCCC7"/>
<ellipse cx="138.46" cy="150.07" rx="2.51952" ry="2.87805" fill="#FF7875"/>
<path fill-rule="evenodd" clip-rule="evenodd" d="M140.127 168.32C140.311 168.776 140.518 169.217 140.748 169.642L144.415 173.771C144.792 174.03 145.184 174.264 145.589 174.47L140.127 168.32ZM149.875 175.562C149.681 175.557 149.487 175.547 149.295 175.531L139.185 164.146C139.171 163.93 139.162 163.712 139.158 163.493L149.875 175.562ZM152.848 175.173C152.7 175.216 152.551 175.256 152.401 175.292L139.397 160.649C139.43 160.48 139.465 160.312 139.503 160.145L152.848 175.173ZM155.237 174.127C155.116 174.2 154.994 174.27 154.87 174.337L140.246 157.868C140.305 157.729 140.368 157.591 140.432 157.455L155.237 174.127ZM157.21 172.614C157.111 172.709 157.01 172.803 156.907 172.895L141.526 155.575C141.608 155.459 141.691 155.345 141.776 155.233L157.21 172.614ZM158.822 170.693C158.742 170.81 158.661 170.926 158.578 171.041L143.173 153.693C143.274 153.599 143.377 153.508 143.482 153.418L158.822 170.693ZM160.065 168.356C160.007 168.498 159.947 168.638 159.885 168.777L145.183 152.221C145.306 152.151 145.431 152.083 145.557 152.019L160.065 168.356ZM160.863 165.52C160.835 165.693 160.803 165.864 160.768 166.034L147.619 151.227C147.77 151.188 147.922 151.152 148.076 151.119L160.863 165.52ZM160.99 161.926C161.011 162.149 161.026 162.375 161.036 162.601L150.667 150.924C150.869 150.936 151.068 150.954 151.267 150.977L160.99 161.926ZM158.73 155.645C159.118 156.204 159.465 156.802 159.764 157.433L155.257 152.357C155.817 152.694 156.348 153.084 156.844 153.522L158.73 155.645Z" fill="#9A2E22"/>
<path d="M155.889 157.644L159.107 152.418L162.324 157.644L165.541 152.418L168.759 157.644L171.976 152.418" stroke="#1F1F1F" stroke-width="2.04735" stroke-linecap="square"/>
<path d="M131.437 170.335L134.654 165.856L137.871 170.335L141.089 165.856L144.306 170.335L147.524 165.856" stroke="#1F1F1F" stroke-width="2.04735" stroke-linecap="square"/>
<ellipse cx="26.5831" cy="37.3289" rx="16.7303" ry="19.411" fill="#F6E1DF"/>
<path d="M31.7308 34.3426L36.3639 26.8768L40.9969 34.3426L45.6299 26.8768L50.2629 34.3426L54.8959 26.8768" stroke="#1F1F1F" stroke-width="2.04735" stroke-linecap="square"/>
<path d="M1.48755 47.781L6.12057 40.3152L10.7536 47.781L15.3866 40.3152L20.0196 47.781L24.6526 40.3152" stroke="#1F1F1F" stroke-width="2.04735" stroke-linecap="square"/>
<path d="M16.3803 1.5921C16.6381 1.0263 17.4126 1.15454 17.5817 1.79105L18.5595 5.47056C18.7211 6.07905 18.1634 6.56027 17.6568 6.24947L15.5822 4.97692C15.2609 4.77984 15.1272 4.34204 15.2835 3.99907L16.3803 1.5921Z" fill="#91D5FF"/>
<path d="M31.8469 123.17L53.4033 70.5367M74.638 123.17L53.4033 70.5367M53.4033 70.5367V60.8312" stroke="#9A2E22" stroke-width="2.04735"/>
<path d="M30.882 122.424H75.2817C66.0084 140.512 40.1553 140.512 30.882 122.424Z" fill="#9A2E22" stroke="#9A2E22" stroke-width="0.682451"/>
<path d="M107.134 123.17L128.69 70.5367M149.925 123.17L128.69 70.5367M128.69 70.5367V60.8312" stroke="#9A2E22" stroke-width="2.04735"/>
<path d="M106.169 122.424H150.568C141.295 140.512 115.442 140.512 106.169 122.424Z" fill="#9A2E22" stroke="#9A2E22" stroke-width="0.682451"/>
<path fill-rule="evenodd" clip-rule="evenodd" d="M86.8638 111.972C85.0869 111.972 83.6465 113.617 83.6465 115.647V148.554H70.1335C68.3566 148.554 66.9161 150.2 66.9161 152.229V164.232H115.177V152.229C115.177 150.2 113.736 148.554 111.959 148.554H98.4464V115.647C98.4464 113.617 97.0059 111.972 95.229 111.972H86.8638Z" fill="#561A13"/>
<path fill-rule="evenodd" clip-rule="evenodd" d="M95.8726 41.9565C97.4488 40.382 98.4468 38.05 98.4468 35.4475C98.4468 30.7058 95.1337 26.8619 91.0468 26.8619C86.9599 26.8619 83.6469 30.7058 83.6469 35.4475C83.6469 38.0497 84.6446 40.3815 86.2205 41.9559V111.972H95.8726V41.9565Z" fill="#902B20"/>
<path fill-rule="evenodd" clip-rule="evenodd" d="M91.3689 61.2045L135.125 61.2045V55.2319L91.3689 46.273L91.3689 46.273L47.6127 55.2319V61.2045H91.3689Z" fill="#9A2E22"/>
</svg>
