<svg width="148" height="176" viewBox="0 0 148 176" fill="none" xmlns="http://www.w3.org/2000/svg">
<path d="M26.376 102.103L28.3865 99.5897L30.397 102.103L32.4075 99.5897L34.418 102.103L36.4285 99.5897" stroke="#95DE64" stroke-width="1.33611" stroke-linecap="square"/>
<path d="M145.017 61.2556L147.027 58.7419L149.038 61.2556L151.048 58.7419L153.059 61.2556L155.069 58.7419" stroke="#40A9FF" stroke-width="1.33611" stroke-linecap="square"/>
<rect width="4.62891" height="4.46444" transform="matrix(0.895939 0.444176 -0.491131 0.871086 138.364 39.1163)" fill="#FFCCC7"/>
<ellipse cx="137.945" cy="148.087" rx="2.62404" ry="2.42258" fill="#FF7875"/>
<path fill-rule="evenodd" clip-rule="evenodd" d="M139.268 169.466C139.459 169.85 139.675 170.221 139.915 170.579L143.734 174.055C144.126 174.272 144.534 174.469 144.956 174.643L139.268 169.466ZM149.421 175.562C149.218 175.558 149.017 175.549 148.817 175.536L138.287 165.953C138.273 165.771 138.263 165.588 138.259 165.403L149.421 175.562ZM152.517 175.235C152.363 175.271 152.207 175.304 152.051 175.335L138.508 163.009C138.542 162.867 138.578 162.725 138.618 162.585L152.517 175.235ZM155.005 174.354C154.879 174.415 154.751 174.474 154.623 174.531L139.391 160.668C139.454 160.551 139.518 160.435 139.585 160.321L155.005 174.354ZM157.06 173.08C156.956 173.161 156.851 173.24 156.744 173.317L140.725 158.738C140.81 158.641 140.897 158.545 140.985 158.45L157.06 173.08ZM158.738 171.463C158.656 171.562 158.571 171.66 158.484 171.756L142.44 157.154C142.546 157.075 142.653 156.998 142.762 156.923L158.738 171.463ZM160.033 169.497C159.973 169.616 159.911 169.734 159.846 169.851L144.534 155.915C144.662 155.856 144.792 155.799 144.923 155.745L160.033 169.497ZM160.864 167.109C160.834 167.254 160.801 167.399 160.765 167.542L147.07 155.078C147.228 155.045 147.386 155.015 147.546 154.988L160.864 167.109ZM160.996 164.084C161.018 164.272 161.034 164.462 161.045 164.653L150.245 154.824C150.455 154.833 150.663 154.848 150.87 154.868L160.996 164.084ZM158.642 158.797C159.047 159.268 159.408 159.771 159.72 160.302L155.025 156.029C155.609 156.313 156.162 156.642 156.679 157.01L158.642 158.797Z" fill="#9A2E22"/>
<path d="M130.217 171.163L133.568 167.392L136.919 171.163L140.27 167.392L143.62 171.163L146.971 167.392" stroke="#1F1F1F" stroke-width="2.00416" stroke-linecap="square"/>
<ellipse cx="23.071" cy="31.4212" rx="15.1645" ry="14.2199" fill="#F6E1DF"/>
<path d="M28.4323 28.9075L33.2575 22.6233L38.0827 28.9075L42.9079 22.6233L47.7331 28.9075L52.5583 22.6233" stroke="#1F1F1F" stroke-width="2.00416" stroke-linecap="square"/>
<path d="M1.95032 39.6835L5.95295 34.4706L9.95557 39.6835L13.9582 34.4706L17.9608 39.6835L21.9635 34.4706" stroke="#1F1F1F" stroke-width="1.6625" stroke-linecap="square"/>
<path d="M12.4283 1.36974C12.7177 0.856356 13.4994 0.908787 13.6785 1.45361L14.6522 4.41505C14.8348 4.97064 14.2109 5.47681 13.6724 5.20985L11.6065 4.18564C11.2759 4.02176 11.1548 3.62837 11.336 3.30698L12.4283 1.36974Z" fill="#1890FF"/>
<path d="M140.59 92.6586L134.38 84.0587L49.9231 115.018L40.7118 125.523C40.099 126.222 40.4461 127.322 41.349 127.543L114.508 145.405L140.59 92.6586Z" fill="#902B20" stroke="#902B20" stroke-width="3.71429"/>
<path d="M92.1518 88.6453C100.225 80.6187 116.992 76.0322 132.517 82.9121L108.919 132.792C103.744 130.307 88.7984 127.058 72.9007 127.058C52.4076 114.445 38.7452 127.632 40.6083 125.912L71.0376 85.7787C76.9993 83.4854 87.5978 86.7342 92.1518 88.6453Z" fill="#9A2E22"/>
<path d="M72.9007 127.058C88.7984 127.058 103.744 130.307 108.919 132.792L132.517 82.9121C116.992 76.0322 100.225 80.6187 92.1518 88.6453M72.9007 127.058C52.4076 114.445 38.7452 127.632 40.6083 125.912L71.0376 85.7787C76.9993 83.4854 87.5978 86.7342 92.1518 88.6453M72.9007 127.058L78.7614 115.018L92.1518 88.6453" stroke="#9A2E22" stroke-width="3.71429"/>
<path fill-rule="evenodd" clip-rule="evenodd" d="M43.7133 49.0857C42.3414 49.0857 41.2292 50.1125 41.2292 51.379V78.8988C41.2292 80.1653 42.3414 81.1921 43.7133 81.1921H60.1304C60.3593 81.1921 60.5837 81.2505 60.7789 81.3608L73.8045 88.7234C74.6321 89.1912 75.6951 88.6414 75.6951 87.7455V82.3387C75.6951 81.7055 76.2511 81.1921 76.9371 81.1921H88.4257C89.7976 81.1921 90.9097 80.1653 90.9097 78.8988V51.379C90.9097 50.1125 89.7976 49.0857 88.4257 49.0857H43.7133ZM53.6494 67.4322C55.0213 67.4322 56.1334 66.4055 56.1334 65.1389C56.1334 63.8723 55.0213 62.8456 53.6494 62.8456C52.2775 62.8456 51.1653 63.8723 51.1653 65.1389C51.1653 66.4055 52.2775 67.4322 53.6494 67.4322ZM66.0695 67.4322C67.4414 67.4322 68.5535 66.4055 68.5535 65.1389C68.5535 63.8723 67.4414 62.8456 66.0695 62.8456C64.6976 62.8456 63.5855 63.8723 63.5855 65.1389C63.5855 66.4055 64.6976 67.4322 66.0695 67.4322ZM80.9736 65.1389C80.9736 66.4055 79.8615 67.4322 78.4896 67.4322C77.1177 67.4322 76.0056 66.4055 76.0056 65.1389C76.0056 63.8723 77.1177 62.8456 78.4896 62.8456C79.8615 62.8456 80.9736 63.8723 80.9736 65.1389Z" fill="#73221A"/>
</svg>
