<svg width="174" height="176" viewBox="0 0 174 176" fill="none" xmlns="http://www.w3.org/2000/svg">
<path d="M32.2184 99.2949L34.1488 96.3086L36.0792 99.2949L38.0097 96.3086L39.9401 99.2949L41.8705 96.3086" stroke="#95DE64" stroke-width="1.3649" stroke-linecap="square"/>
<path d="M155.765 50.7674L157.696 47.7811L159.626 50.7674L161.557 47.7811L163.487 50.7674L165.417 47.7811" stroke="#69C0FF" stroke-width="1.3649" stroke-linecap="square"/>
<rect width="4.67151" height="5.07715" transform="matrix(0.852409 0.522876 -0.41466 0.909976 159.01 24.4654)" fill="#FFCCC7"/>
<ellipse cx="138.948" cy="150.07" rx="2.51952" ry="2.87806" fill="#FF7875"/>
<path fill-rule="evenodd" clip-rule="evenodd" d="M140.615 168.32C140.798 168.776 141.006 169.217 141.235 169.642L144.903 173.772C145.28 174.03 145.671 174.264 146.076 174.47L140.615 168.32ZM150.363 175.562C150.168 175.557 149.975 175.547 149.783 175.531L139.673 164.146C139.659 163.93 139.65 163.712 139.646 163.493L150.363 175.562ZM153.336 175.173C153.188 175.216 153.039 175.256 152.888 175.292L139.885 160.649C139.917 160.48 139.952 160.312 139.991 160.145L153.336 175.173ZM155.725 174.127C155.604 174.2 155.481 174.27 155.358 174.337L140.733 157.868C140.793 157.729 140.855 157.591 140.919 157.455L155.725 174.127ZM157.698 172.614C157.598 172.709 157.497 172.803 157.395 172.895L142.014 155.575C142.095 155.459 142.179 155.345 142.264 155.233L157.698 172.614ZM159.31 170.693C159.23 170.81 159.149 170.926 159.066 171.041L143.66 153.693C143.762 153.599 143.865 153.508 143.969 153.418L159.31 170.693ZM160.552 168.356C160.495 168.498 160.435 168.638 160.373 168.777L145.671 152.221C145.794 152.151 145.918 152.083 146.044 152.019L160.552 168.356ZM161.351 165.52C161.322 165.693 161.29 165.864 161.255 166.034L148.106 151.227C148.257 151.188 148.41 151.152 148.563 151.119L161.351 165.52ZM161.477 161.926C161.498 162.149 161.514 162.375 161.524 162.601L151.155 150.924C151.356 150.936 151.556 150.954 151.754 150.977L161.477 161.926ZM159.217 155.645C159.606 156.204 159.952 156.802 160.252 157.433L155.744 152.357C156.304 152.694 156.835 153.084 157.332 153.522L159.217 155.645Z" fill="#9A2E22"/>
<path d="M156.377 157.644L159.594 152.418L162.811 157.644L166.029 152.418L169.246 157.644L172.464 152.418" stroke="#1F1F1F" stroke-width="2.04735" stroke-linecap="square"/>
<path d="M131.924 170.336L135.142 165.856L138.359 170.336L141.576 165.856L144.794 170.336L148.011 165.856" stroke="#1F1F1F" stroke-width="2.04735" stroke-linecap="square"/>
<ellipse cx="27.0707" cy="37.3289" rx="16.7303" ry="19.411" fill="#F6E1DF"/>
<path d="M32.2184 34.3426L36.8514 26.8768L41.4844 34.3426L46.1174 26.8768L50.7505 34.3426L55.3835 26.8768" stroke="#1F1F1F" stroke-width="2.04735" stroke-linecap="square"/>
<path d="M1.9751 47.781L6.60812 40.3152L11.2411 47.781L15.8742 40.3152L20.5072 47.781L25.1402 40.3152" stroke="#1F1F1F" stroke-width="2.04735" stroke-linecap="square"/>
<path d="M16.8679 1.59211C17.1257 1.0263 17.9002 1.15454 18.0693 1.79105L19.0471 5.47056C19.2088 6.07905 18.6511 6.56027 18.1444 6.24947L16.0698 4.97692C15.7485 4.77984 15.6148 4.34205 15.7711 3.99907L16.8679 1.59211Z" fill="#91D5FF"/>
<path d="M63.9409 63.595C65.7506 50.7999 76.7023 41.2883 89.6248 41.2883V41.2883C103.951 41.2883 115.564 52.9017 115.564 67.2277V118.926L78.5327 132.395C66.9143 136.62 54.9808 126.946 56.7122 114.705L63.9409 63.595Z" fill="#73221A"/>
<path d="M63.0448 107.077C63.0448 98.0291 70.3795 90.6944 79.4273 90.6944H97.637C106.685 90.6944 114.02 98.0291 114.02 107.077V144.419C114.02 155.677 104.893 164.804 93.6349 164.804H83.4294C72.1713 164.804 63.0448 155.677 63.0448 144.419V107.077Z" fill="#902B20"/>
<path d="M100.418 102.298L121.171 126.005L97.6878 152.83C91.957 159.376 82.6656 159.376 76.9349 152.83V152.83C71.2041 146.284 71.2041 135.67 76.9349 129.124L100.418 102.298Z" fill="#C0392B"/>
<circle r="15.7533" transform="matrix(0.658685 0.752419 -0.658685 0.752419 111.341 113.528)" fill="#EBC2BD"/>
<circle r="1.65824" transform="matrix(0.658685 0.752419 -0.658685 0.752419 110.449 108.198)" fill="#73221A"/>
<circle r="1.65824" transform="matrix(0.658685 0.752419 -0.658685 0.752419 117.003 115.684)" fill="#73221A"/>
<path fill-rule="evenodd" clip-rule="evenodd" d="M72.3129 95.9879C67.1943 95.9879 63.0448 100.137 63.0448 105.256V146.267C63.0448 156.505 71.3438 164.804 81.5811 164.804L100.343 164.804C106.19 164.804 110.93 160.064 110.93 154.217C110.93 148.37 106.19 143.63 100.343 143.63H81.581L81.5811 105.256C81.5811 100.137 77.4316 95.9879 72.3129 95.9879Z" fill="#9A2E22"/>
<path fill-rule="evenodd" clip-rule="evenodd" d="M90.974 48.3679C90.6764 48.3535 90.3772 48.3462 90.0765 48.3462C78.5595 48.3462 69.2231 59.0111 69.2231 72.167C69.2231 85.323 78.5595 95.9879 90.0765 95.9879C100.817 95.9879 109.661 86.7129 110.805 74.7922C99.7039 74.2552 90.8488 63.8055 90.8488 50.993C90.8488 50.1058 90.8913 49.2299 90.974 48.3679Z" fill="#EBC2BD"/>
<ellipse cx="88.6181" cy="75.3406" rx="2.15224" ry="2.45852" fill="#73221A"/>
<ellipse cx="98.9494" cy="75.3406" rx="2.15224" ry="2.45852" fill="#73221A"/>
</svg>
