<svg width="174" height="176" viewBox="0 0 174 176" fill="none" xmlns="http://www.w3.org/2000/svg">
<path d="M25.8635 103.793L27.874 100.983L29.8845 103.793L31.895 100.983L33.9055 103.793L35.916 100.983" stroke="#95DE64" stroke-width="1.33611" stroke-linecap="square"/>
<path d="M144.504 58.1272L146.515 55.317L148.525 58.1272L150.536 55.317L152.546 58.1272L154.557 55.317" stroke="#40A9FF" stroke-width="1.33611" stroke-linecap="square"/>
<rect width="4.74162" height="4.86922" transform="matrix(0.874645 0.484764 -0.450303 0.892876 137.852 33.3763)" fill="#FFCCC7"/>
<ellipse cx="137.432" cy="144.847" rx="2.62404" ry="2.70832" fill="#FF7875"/>
<path fill-rule="evenodd" clip-rule="evenodd" d="M138.756 168.747C138.947 169.176 139.163 169.592 139.403 169.991L143.222 173.877C143.614 174.12 144.023 174.34 144.444 174.535L138.756 168.747ZM148.909 175.562C148.706 175.557 148.505 175.548 148.305 175.533L137.775 164.819C137.761 164.616 137.751 164.411 137.747 164.205L148.909 175.562ZM152.005 175.196C151.851 175.237 151.695 175.274 151.539 175.308L137.996 161.529C138.03 161.369 138.066 161.211 138.106 161.054L152.005 175.196ZM154.493 174.212C154.367 174.28 154.239 174.346 154.111 174.409L138.879 158.912C138.942 158.781 139.006 158.651 139.073 158.523L154.493 174.212ZM156.548 172.787C156.444 172.878 156.339 172.966 156.232 173.052L140.213 156.753C140.298 156.645 140.385 156.538 140.473 156.432L156.548 172.787ZM158.226 170.98C158.144 171.091 158.059 171.2 157.972 171.307L141.928 154.983C142.034 154.895 142.141 154.808 142.25 154.724L158.226 170.98ZM159.521 168.781C159.461 168.915 159.399 169.047 159.334 169.177L144.022 153.597C144.15 153.531 144.28 153.468 144.411 153.407L159.521 168.781ZM160.352 166.112C160.322 166.275 160.289 166.436 160.253 166.596L146.558 152.662C146.716 152.625 146.874 152.591 147.034 152.561L160.352 166.112ZM160.484 162.73C160.506 162.94 160.522 163.152 160.533 163.366L149.733 152.377C149.943 152.388 150.151 152.405 150.358 152.427L160.484 162.73ZM158.13 156.82C158.535 157.346 158.896 157.909 159.208 158.502L154.513 153.726C155.097 154.043 155.65 154.41 156.167 154.822L158.13 156.82Z" fill="#9A2E22"/>
<path d="M155.171 158.7L158.522 153.783L161.873 158.7L165.224 153.783L168.575 158.7L171.925 153.783" stroke="#1F1F1F" stroke-width="2.00416" stroke-linecap="square"/>
<path d="M129.705 170.644L133.056 166.428L136.407 170.644L139.758 166.428L143.108 170.644L146.459 166.428" stroke="#1F1F1F" stroke-width="2.00416" stroke-linecap="square"/>
<ellipse cx="22.5585" cy="35.1274" rx="15.1645" ry="15.8972" fill="#F6E1DF"/>
<path d="M27.9199 32.3172L32.7451 25.2917L37.5703 32.3172L42.3956 25.2917L47.2208 32.3172L52.046 25.2917" stroke="#1F1F1F" stroke-width="2.00416" stroke-linecap="square"/>
<path d="M1.43799 44.3642L5.44062 38.5364L9.44325 44.3642L13.4459 38.5364L17.4485 44.3642L21.4511 38.5364" stroke="#1F1F1F" stroke-width="1.6625" stroke-linecap="square"/>
<path d="M11.9481 1.46753C12.2181 0.93229 12.9885 1.02105 13.1609 1.60725L14.1876 5.09816C14.3575 5.676 13.7751 6.16523 13.2583 5.87878L11.0799 4.67146C10.7572 4.4926 10.6303 4.08055 10.7964 3.75112L11.9481 1.46753Z" fill="#1890FF"/>
<path d="M46.9459 101.275L41.7609 75.0042C40.5395 68.8155 35.112 64.3545 28.8038 64.3545H20.4482" stroke="#73221A" stroke-width="3.96211" stroke-linecap="round"/>
<ellipse cx="62.182" cy="142.982" rx="7.94929" ry="8.20463" fill="#73221A"/>
<ellipse cx="105.903" cy="142.982" rx="7.9493" ry="8.20462" fill="#73221A"/>
<path fill-rule="evenodd" clip-rule="evenodd" d="M125.756 93.8721C125.77 94.2881 125.776 94.7047 125.776 95.1218H125.54L123.052 109.502C120.795 122.545 109.804 132.043 96.9667 132.043H72.443C59.6057 132.043 48.6147 122.545 46.358 109.502L43.6335 93.7544H89.5934L79.4035 59.8595C84.7567 58.1451 90.4253 57.753 95.9523 58.7149C101.479 59.6768 106.71 61.9657 111.223 65.3971C115.735 68.8285 119.403 73.3063 121.931 78.4695C124.26 83.2253 125.561 88.4401 125.752 93.7544H125.776L125.756 93.8721Z" fill="#9A2E22"/>
</svg>
