<svg width="174" height="176" viewBox="0 0 174 176" fill="none" xmlns="http://www.w3.org/2000/svg">
<path d="M28.2529 103.696L30.4581 100.71L32.6632 103.696L34.8683 100.71L37.0735 103.696L39.2786 100.71" stroke="#95DE64" stroke-width="1.47009" stroke-linecap="square"/>
<path d="M158.379 61.77L160.584 58.7837L162.789 61.77L164.994 58.7837L167.199 61.77L169.404 58.7837" stroke="#40A9FF" stroke-width="1.47009" stroke-linecap="square"/>
<rect width="5.16305" height="5.20851" transform="matrix(0.881011 0.473096 -0.461721 0.887025 151.082 35.468)" fill="#FFCCC7"/>
<circle cx="134.118" cy="142.922" r="2.87806" fill="#FF7875"/>
<path fill-rule="evenodd" clip-rule="evenodd" d="M135.57 168.32C135.78 168.776 136.017 169.217 136.279 169.642L140.468 173.772C140.898 174.03 141.346 174.264 141.809 174.47L135.57 168.32ZM146.705 175.562C146.483 175.557 146.262 175.547 146.043 175.531L134.494 164.146C134.478 163.93 134.468 163.712 134.463 163.493L146.705 175.562ZM150.101 175.173C149.932 175.216 149.762 175.256 149.59 175.292L134.736 160.649C134.773 160.48 134.813 160.312 134.857 160.145L150.101 175.173ZM152.83 174.127C152.692 174.2 152.552 174.27 152.411 174.337L135.705 157.868C135.773 157.729 135.844 157.591 135.918 157.455L152.83 174.127ZM155.084 172.614C154.97 172.709 154.855 172.803 154.737 172.895L137.168 155.575C137.261 155.459 137.356 155.345 137.453 155.233L155.084 172.614ZM156.925 170.693C156.834 170.81 156.741 170.926 156.646 171.041L139.049 153.693C139.165 153.599 139.282 153.508 139.402 153.418L156.925 170.693ZM158.345 168.356C158.279 168.498 158.211 168.638 158.14 168.777L141.345 152.221C141.486 152.151 141.628 152.083 141.772 152.019L158.345 168.356ZM159.257 165.52C159.224 165.693 159.187 165.864 159.147 166.034L144.127 151.227C144.3 151.188 144.474 151.152 144.649 151.119L159.257 165.52ZM159.401 161.926C159.425 162.149 159.443 162.375 159.454 162.601L147.61 150.924C147.84 150.936 148.068 150.954 148.295 150.977L159.401 161.926ZM156.82 155.645C157.263 156.204 157.659 156.802 158.001 157.433L152.852 152.357C153.492 152.694 154.099 153.084 154.666 153.522L156.82 155.645Z" fill="#9A2E22"/>
<path d="M153.574 157.644L157.25 152.418L160.925 157.644L164.6 152.418L168.275 157.644L171.95 152.418" stroke="#1F1F1F" stroke-width="2.20513" stroke-linecap="square"/>
<path d="M125.643 170.336L129.318 165.856L132.993 170.336L136.668 165.856L140.343 170.336L144.019 165.856" stroke="#1F1F1F" stroke-width="2.20513" stroke-linecap="square"/>
<ellipse cx="24.6285" cy="37.3288" rx="16.6325" ry="16.8935" fill="#F6E1DF"/>
<path d="M30.5087 34.3425L35.801 26.8767L41.0933 34.3425L46.3856 26.8767L51.6779 34.3425L56.9702 26.8767" stroke="#1F1F1F" stroke-width="2.20513" stroke-linecap="square"/>
<path d="M1.46277 47.1446L5.85287 40.9516L10.243 47.1446L14.6331 40.9516L19.0232 47.1446L23.4133 40.9516" stroke="#1F1F1F" stroke-width="1.82921" stroke-linecap="square"/>
<path d="M12.9782 1.58388C13.2812 1.00163 14.1327 1.08745 14.3246 1.71959L15.4309 5.3643C15.6219 5.99345 14.9682 6.53742 14.3927 6.22835L12.0453 4.96783C11.6877 4.77577 11.5497 4.32817 11.7371 3.96808L12.9782 1.58388Z" fill="#1890FF"/>
<path d="M115.108 63.0564L134.245 82.1939C135.655 83.6032 135.655 85.888 134.245 87.2973L75.5569 145.986C74.1477 147.395 71.8628 147.395 70.4536 145.986L43.6611 119.193C42.2518 117.784 42.2518 115.499 43.6611 114.09L73.0053 84.7456L95.9703 61.7806L115.108 63.0564Z" fill="#9A2E22"/>
<rect x="136.797" y="116.641" width="45.1075" height="90.2151" rx="3.6086" transform="rotate(135 136.797 116.641)" fill="#C0392B"/>
<circle cx="89.5907" cy="89.849" r="2.70645" transform="rotate(45 89.5907 89.849)" fill="#73221A"/>
<circle cx="78.1083" cy="101.331" r="2.70645" transform="rotate(45 78.1083 101.331)" fill="#73221A"/>
<circle cx="101.073" cy="101.331" r="2.70645" transform="rotate(45 101.073 101.331)" fill="#73221A"/>
<circle cx="89.5907" cy="112.814" r="2.70645" transform="rotate(45 89.5907 112.814)" fill="#73221A"/>
<path d="M103.625 69.4356L95.9703 61.7806L115.108 63.0564L108.729 69.4356C107.319 70.8448 105.035 70.8448 103.625 69.4356Z" fill="#C0392B"/>
</svg>
