<svg width="175" height="176" viewBox="0 0 175 176" fill="none" xmlns="http://www.w3.org/2000/svg">
<path d="M28.7902 103.696L30.9954 100.71L33.2005 103.696L35.4056 100.71L37.6107 103.696L39.8159 100.71" stroke="#95DE64" stroke-width="1.47009" stroke-linecap="square"/>
<path d="M158.916 61.77L161.121 58.7837L163.326 61.77L165.531 58.7837L167.737 61.77L169.942 58.7837" stroke="#40A9FF" stroke-width="1.47009" stroke-linecap="square"/>
<rect width="5.16305" height="5.20851" transform="matrix(0.881011 0.473096 -0.461721 0.887025 151.619 35.468)" fill="#FFCCC7"/>
<circle cx="134.655" cy="142.922" r="2.87806" fill="#FF7875"/>
<path fill-rule="evenodd" clip-rule="evenodd" d="M136.107 168.32C136.317 168.776 136.554 169.217 136.816 169.642L141.005 173.772C141.436 174.03 141.883 174.264 142.346 174.47L136.107 168.32ZM147.242 175.562C147.02 175.557 146.799 175.547 146.58 175.531L135.031 164.146C135.015 163.93 135.005 163.712 135 163.493L147.242 175.562ZM150.638 175.173C150.469 175.216 150.299 175.256 150.127 175.292L135.273 160.649C135.31 160.48 135.35 160.312 135.394 160.145L150.638 175.173ZM153.367 174.127C153.229 174.2 153.089 174.27 152.948 174.337L136.242 157.868C136.311 157.729 136.382 157.591 136.455 157.455L153.367 174.127ZM155.621 172.614C155.507 172.709 155.392 172.803 155.275 172.895L137.705 155.575C137.798 155.459 137.894 155.345 137.991 155.233L155.621 172.614ZM157.462 170.693C157.371 170.81 157.278 170.926 157.184 171.041L139.586 153.693C139.702 153.599 139.82 153.508 139.939 153.418L157.462 170.693ZM158.882 168.356C158.816 168.498 158.748 168.638 158.677 168.777L141.882 152.221C142.023 152.151 142.165 152.083 142.309 152.019L158.882 168.356ZM159.794 165.52C159.761 165.693 159.725 165.864 159.685 166.034L144.664 151.227C144.837 151.188 145.011 151.152 145.187 151.119L159.794 165.52ZM159.938 161.926C159.962 162.149 159.98 162.375 159.992 162.601L148.147 150.924C148.377 150.936 148.605 150.954 148.832 150.977L159.938 161.926ZM157.357 155.645C157.801 156.204 158.197 156.802 158.539 157.433L153.39 152.357C154.029 152.694 154.636 153.084 155.203 153.522L157.357 155.645Z" fill="#9A2E22"/>
<path d="M154.112 157.644L157.787 152.418L161.462 157.644L165.137 152.418L168.812 157.644L172.488 152.418" stroke="#1F1F1F" stroke-width="2.20513" stroke-linecap="square"/>
<path d="M126.18 170.336L129.855 165.856L133.53 170.336L137.205 165.856L140.881 170.336L144.556 165.856" stroke="#1F1F1F" stroke-width="2.20513" stroke-linecap="square"/>
<ellipse cx="25.1657" cy="37.3288" rx="16.6325" ry="16.8935" fill="#F6E1DF"/>
<path d="M31.0459 34.3425L36.3382 26.8767L41.6305 34.3425L46.9228 26.8767L52.2152 34.3425L57.5075 26.8767" stroke="#1F1F1F" stroke-width="2.20513" stroke-linecap="square"/>
<path d="M2 47.1446L6.3901 40.9516L10.7802 47.1446L15.1703 40.9516L19.5604 47.1446L23.9505 40.9516" stroke="#1F1F1F" stroke-width="1.82921" stroke-linecap="square"/>
<path d="M13.5154 1.58388C13.8185 1.00163 14.6699 1.08745 14.8618 1.71959L15.9681 5.3643C16.1591 5.99345 15.5055 6.53742 14.9299 6.22835L12.5825 4.96783C12.2249 4.77577 12.0869 4.32817 12.2743 3.96808L13.5154 1.58388Z" fill="#1890FF"/>
<rect x="30" y="77.4084" width="33.4225" height="55.7042" fill="#9A2E22"/>
<rect x="36.3662" y="90.1408" width="4.77465" height="7.95775" fill="#D55143"/>
<rect x="36.3662" y="107.648" width="4.77465" height="7.95775" fill="#D55143"/>
<rect x="52.2812" y="90.1409" width="4.77465" height="7.95775" fill="#D55143"/>
<rect x="52.2812" y="107.648" width="4.77465" height="7.95775" fill="#D55143"/>
<rect x="109.578" y="77.4084" width="33.4225" height="55.7042" fill="#9A2E22"/>
<rect x="115.944" y="90.1408" width="4.77465" height="7.95775" fill="#D55143"/>
<rect x="115.944" y="107.648" width="4.77465" height="7.95775" fill="#D55143"/>
<rect x="131.859" y="90.1409" width="4.77465" height="7.95775" fill="#D55143"/>
<rect x="131.859" y="107.648" width="4.77465" height="7.95775" fill="#D55143"/>
<rect x="61.8309" y="79" width="17.507" height="44.5634" fill="#D55143"/>
<rect x="93.662" y="79" width="17.507" height="44.5634" fill="#D55143"/>
<rect x="57.0568" y="123.563" width="58.8873" height="6.3662" rx="1.59155" fill="#C0392B"/>
<rect x="52.2821" y="128.338" width="68.4366" height="6.3662" rx="1.59155" fill="#43140F"/>
<rect x="77.7469" y="79.0001" width="17.507" height="44.5634" fill="#9A2E22"/>
<rect x="85.705" y="23.2959" width="20.6901" height="17.507" fill="#D55143"/>
<rect x="85.705" y="23.2959" width="3.1831" height="30.2394" fill="#5C0011"/>
<path d="M87.2962 51.9438L57.0568 75.817H115.944L87.2962 51.9438Z" fill="#902B20"/>
<rect x="57.0568" y="74.2255" width="58.8873" height="6.3662" rx="1.59155" fill="#C0392B"/>
</svg>
